#tb 0: 1171/11025
#media_type 0: video
#codec_id 0: rawvideo
#dimensions 0: 320x200
#sar 0: 0/1
0,          0,          0,        1,   192000, 0x7324a772
0,          1,          1,        1,   192000, 0x6b48acfe
0,          2,          2,        1,   192000, 0xb4028a8c
0,          3,          3,        1,   192000, 0x4ef9ffd9
0,          4,          4,        1,   192000, 0xf25fede9
0,          5,          5,        1,   192000, 0x4a10f856
0,          6,          6,        1,   192000, 0x9bc62bcd
0,          7,          7,        1,   192000, 0x3e5e42a8
0,          8,          8,        1,   192000, 0x68d15693
0,          9,          9,        1,   192000, 0xe3f04830
0,         10,         10,        1,   192000, 0x369d2c04
0,         11,         11,        1,   192000, 0x1ef93f8e
0,         12,         12,        1,   192000, 0xcfbc6f0d
0,         13,         13,        1,   192000, 0x391fc3d9
0,         14,         14,        1,   192000, 0x20304209
0,         15,         15,        1,   192000, 0x4b2671af
0,         16,         16,        1,   192000, 0x8ad63fa5
0,         17,         17,        1,   192000, 0x0581404f
0,         18,         18,        1,   192000, 0xcad07f30
0,         19,         19,        1,   192000, 0xc0ed3a88
0,         20,         20,        1,   192000, 0x99d611ff
0,         21,         21,        1,   192000, 0xc4da2368
0,         22,         22,        1,   192000, 0xe5a8bdd6
0,         23,         23,        1,   192000, 0x809bc357
0,         24,         24,        1,   192000, 0xb2569657
0,         25,         25,        1,   192000, 0x356a91e8
0,         26,         26,        1,   192000, 0x5ab658cb
0,         27,         27,        1,   192000, 0xed2148a3
0,         28,         28,        1,   192000, 0x0e0e3aac
0,         29,         29,        1,   192000, 0x08b89165
0,         30,         30,        1,   192000, 0x5512caa6
0,         31,         31,        1,   192000, 0x3b05f950
0,         32,         32,        1,   192000, 0x6d0c364e
0,         33,         33,        1,   192000, 0x5318a9eb
0,         34,         34,        1,   192000, 0xc9810eb6
0,         35,         35,        1,   192000, 0x910c6a44
0,         36,         36,        1,   192000, 0x66fc24e2
0,         37,         37,        1,   192000, 0x442c2922
0,         38,         38,        1,   192000, 0xca66fb23
0,         39,         39,        1,   192000, 0x4c22d6a7
0,         40,         40,        1,   192000, 0x74757934
0,         41,         41,        1,   192000, 0xddd028a1
0,         42,         42,        1,   192000, 0x01952f76
0,         43,         43,        1,   192000, 0xfb5d9451
0,         44,         44,        1,   192000, 0xcb20a647
0,         45,         45,        1,   192000, 0x198684c6
0,         46,         46,        1,   192000, 0x372237a7
0,         47,         47,        1,   192000, 0x522235ca
0,         48,         48,        1,   192000, 0x336e7556
0,         49,         49,        1,   192000, 0xdd6249b9
0,         50,         50,        1,   192000, 0x0bba632c
0,         51,         51,        1,   192000, 0xbbdb5795
0,         52,         52,        1,   192000, 0x61006766
0,         53,         53,        1,   192000, 0xe10a5622
0,         54,         54,        1,   192000, 0x7aa8b6b8
0,         55,         55,        1,   192000, 0x1c0dae44
0,         56,         56,        1,   192000, 0x65478853
0,         57,         57,        1,   192000, 0xcc1397ae
0,         58,         58,        1,   192000, 0x0d441eae
0,         59,         59,        1,   192000, 0xa28cf189
0,         60,         60,        1,   192000, 0x240b3217
0,         61,         61,        1,   192000, 0x64e7997f
0,         62,         62,        1,   192000, 0x042428bf
0,         63,         63,        1,   192000, 0x03ecc1cd
0,         64,         64,        1,   192000, 0xf5d53b7f
0,         65,         65,        1,   192000, 0xf0d084c2
0,         66,         66,        1,   192000, 0xa0d980a2
0,         67,         67,        1,   192000, 0xcb2e2f42
0,         68,         68,        1,   192000, 0x7d6a7628
0,         69,         69,        1,   192000, 0xb38ae0c6
0,         70,         70,        1,   192000, 0x2c75b6c9
0,         71,         71,        1,   192000, 0x46b608b7
0,         72,         72,        1,   192000, 0x9ca018e8
0,         73,         73,        1,   192000, 0x5758f5d3
0,         74,         74,        1,   192000, 0xefbb4691
0,         75,         75,        1,   192000, 0x962ffb76
0,         76,         76,        1,   192000, 0x99843128
0,         77,         77,        1,   192000, 0x8df36c21
0,         78,         78,        1,   192000, 0x28ef45a1
0,         79,         79,        1,   192000, 0x299438a2
0,         80,         80,        1,   192000, 0xaedb1602
0,         81,         81,        1,   192000, 0xcdc92da6
0,         82,         82,        1,   192000, 0x4de53a27
0,         83,         83,        1,   192000, 0x507cdd09
0,         84,         84,        1,   192000, 0x7c8b1d80
0,         85,         85,        1,   192000, 0xc7079d9f
0,         86,         86,        1,   192000, 0xc7079d9f
0,         87,         87,        1,   192000, 0x9a5c4b16
0,         88,         88,        1,   192000, 0x3565f42a
0,         89,         89,        1,   192000, 0xabe6dd65
0,         90,         90,        1,   192000, 0xb54626db
0,         91,         91,        1,   192000, 0x567f7795
0,         92,         92,        1,   192000, 0x011ce6d4
0,         93,         93,        1,   192000, 0xbf7de728
0,         94,         94,        1,   192000, 0xf78b283c
0,         95,         95,        1,   192000, 0xcef0068d
0,         96,         96,        1,   192000, 0x878f59f9
0,         97,         97,        1,   192000, 0xeb26cf53
0,         98,         98,        1,   192000, 0x218563a3
0,         99,         99,        1,   192000, 0xee1d4951
0,        100,        100,        1,   192000, 0xe354272f
0,        101,        101,        1,   192000, 0x58f4b1eb
0,        102,        102,        1,   192000, 0xc62b074b
0,        103,        103,        1,   192000, 0x7e581a82
0,        104,        104,        1,   192000, 0x36c3d6f3
0,        105,        105,        1,   192000, 0xbfd91085
0,        106,        106,        1,   192000, 0xb678ce98
0,        107,        107,        1,   192000, 0x1098a157
